<svg width="62" height="62" viewBox="0 0 62 62" fill="none" xmlns="http://www.w3.org/2000/svg">
<path d="M50.375 9.6875H11.625C10.0834 9.6875 8.605 10.2999 7.51494 11.3899C6.42489 12.48 5.8125 13.9584 5.8125 15.5V42.625C5.8125 44.1666 6.42489 45.645 7.51494 46.7351C8.605 47.8251 10.0834 48.4375 11.625 48.4375H29.0625V52.3125H23.25C22.7361 52.3125 22.2433 52.5166 21.88 52.88C21.5166 53.2433 21.3125 53.7361 21.3125 54.25C21.3125 54.7639 21.5166 55.2567 21.88 55.62C22.2433 55.9834 22.7361 56.1875 23.25 56.1875H38.75C39.2639 56.1875 39.7567 55.9834 40.12 55.62C40.4834 55.2567 40.6875 54.7639 40.6875 54.25C40.6875 53.7361 40.4834 53.2433 40.12 52.88C39.7567 52.5166 39.2639 52.3125 38.75 52.3125H32.9375V48.4375H50.375C51.9166 48.4375 53.395 47.8251 54.4851 46.7351C55.5751 45.645 56.1875 44.1666 56.1875 42.625V15.5C56.1875 13.9584 55.5751 12.48 54.4851 11.3899C53.395 10.2999 51.9166 9.6875 50.375 9.6875ZM50.375 44.5625H11.625C11.1111 44.5625 10.6183 44.3584 10.255 43.995C9.89163 43.6317 9.6875 43.1389 9.6875 42.625V38.75H52.3125V42.625C52.3125 43.1389 52.1084 43.6317 51.745 43.995C51.3817 44.3584 50.8889 44.5625 50.375 44.5625Z" fill="white"/>
</svg>
