<svg width="1135" height="324" viewBox="0 0 1135 324" fill="none" xmlns="http://www.w3.org/2000/svg">
<path d="M170.993 164.706L199.877 136.977L227.606 164.706" stroke="#81CD39" stroke-width="9" stroke-linecap="round" stroke-linejoin="round"/>
<path d="M97.36 259V224.44H118.168V230.224H103.144V238.84H115.288V244.6H103.144V259H97.36ZM130.73 259.72C128.138 259.72 125.874 259.136 123.938 257.968C122.002 256.8 120.498 255.192 119.426 253.144C118.37 251.08 117.842 248.712 117.842 246.04C117.842 243.32 118.386 240.936 119.474 238.888C120.562 236.84 122.074 235.24 124.01 234.088C125.946 232.936 128.186 232.36 130.73 232.36C133.338 232.36 135.61 232.944 137.546 234.112C139.482 235.28 140.986 236.896 142.058 238.96C143.13 241.008 143.666 243.368 143.666 246.04C143.666 248.728 143.122 251.104 142.034 253.168C140.962 255.216 139.458 256.824 137.522 257.992C135.586 259.144 133.322 259.72 130.73 259.72ZM130.73 254.296C133.034 254.296 134.746 253.528 135.866 251.992C136.986 250.456 137.546 248.472 137.546 246.04C137.546 243.528 136.978 241.528 135.842 240.04C134.706 238.536 133.002 237.784 130.73 237.784C129.178 237.784 127.898 238.136 126.89 238.84C125.898 239.528 125.162 240.496 124.682 241.744C124.202 242.976 123.962 244.408 123.962 246.04C123.962 248.552 124.53 250.56 125.666 252.064C126.818 253.552 128.506 254.296 130.73 254.296ZM146.454 259V233.08H151.566V239.392L150.942 238.576C151.262 237.712 151.686 236.928 152.214 236.224C152.758 235.504 153.406 234.912 154.158 234.448C154.798 234.016 155.502 233.68 156.27 233.44C157.054 233.184 157.854 233.032 158.67 232.984C159.486 232.92 160.278 232.952 161.046 233.08V238.48C160.278 238.256 159.39 238.184 158.382 238.264C157.39 238.344 156.494 238.624 155.694 239.104C154.894 239.536 154.238 240.088 153.726 240.76C153.23 241.432 152.862 242.2 152.622 243.064C152.382 243.912 152.262 244.832 152.262 245.824V259H146.454ZM194.254 259V243.256C194.254 241.48 193.814 240.096 192.934 239.104C192.054 238.096 190.862 237.592 189.358 237.592C188.43 237.592 187.598 237.808 186.862 238.24C186.126 238.656 185.542 239.28 185.11 240.112C184.678 240.928 184.462 241.904 184.462 243.04L181.894 241.528C181.878 239.736 182.278 238.16 183.094 236.8C183.926 235.424 185.046 234.352 186.454 233.584C187.862 232.816 189.43 232.432 191.158 232.432C194.022 232.432 196.214 233.296 197.734 235.024C199.27 236.736 200.038 238.992 200.038 241.792V259H194.254ZM163.078 259V233.08H168.19V241.12H168.91V259H163.078ZM178.702 259V243.328C178.702 241.52 178.262 240.112 177.382 239.104C176.502 238.096 175.302 237.592 173.782 237.592C172.31 237.592 171.126 238.096 170.23 239.104C169.35 240.112 168.91 241.424 168.91 243.04L166.318 241.312C166.318 239.632 166.734 238.12 167.566 236.776C168.398 235.432 169.518 234.376 170.926 233.608C172.35 232.824 173.942 232.432 175.702 232.432C177.638 232.432 179.254 232.848 180.55 233.68C181.862 234.496 182.838 235.616 183.478 237.04C184.134 238.448 184.462 240.04 184.462 241.816V259H178.702ZM211.046 259.72C209.174 259.72 207.59 259.368 206.294 258.664C204.998 257.944 204.014 256.992 203.342 255.808C202.686 254.624 202.358 253.32 202.358 251.896C202.358 250.648 202.566 249.528 202.982 248.536C203.398 247.528 204.038 246.664 204.902 245.944C205.766 245.208 206.886 244.608 208.262 244.144C209.302 243.808 210.518 243.504 211.91 243.232C213.318 242.96 214.838 242.712 216.47 242.488C218.118 242.248 219.838 241.992 221.63 241.72L219.566 242.896C219.582 241.104 219.182 239.784 218.366 238.936C217.55 238.088 216.174 237.664 214.238 237.664C213.07 237.664 211.942 237.936 210.854 238.48C209.766 239.024 209.006 239.96 208.574 241.288L203.294 239.632C203.934 237.44 205.15 235.68 206.942 234.352C208.75 233.024 211.182 232.36 214.238 232.36C216.542 232.36 218.566 232.736 220.31 233.488C222.07 234.24 223.374 235.472 224.222 237.184C224.686 238.096 224.966 239.032 225.062 239.992C225.158 240.936 225.206 241.968 225.206 243.088V259H220.142V253.384L220.982 254.296C219.814 256.168 218.446 257.544 216.878 258.424C215.326 259.288 213.382 259.72 211.046 259.72ZM212.198 255.112C213.51 255.112 214.63 254.88 215.558 254.416C216.486 253.952 217.222 253.384 217.766 252.712C218.326 252.04 218.702 251.408 218.894 250.816C219.198 250.08 219.366 249.24 219.398 248.296C219.446 247.336 219.47 246.56 219.47 245.968L221.246 246.496C219.502 246.768 218.006 247.008 216.758 247.216C215.51 247.424 214.438 247.624 213.542 247.816C212.646 247.992 211.854 248.192 211.166 248.416C210.494 248.656 209.926 248.936 209.462 249.256C208.998 249.576 208.638 249.944 208.382 250.36C208.142 250.776 208.022 251.264 208.022 251.824C208.022 252.464 208.182 253.032 208.502 253.528C208.822 254.008 209.286 254.392 209.894 254.68C210.518 254.968 211.286 255.112 212.198 255.112ZM239.37 270.592C238.73 270.592 238.13 270.504 237.57 270.328C237.026 270.168 236.522 269.968 236.058 269.728L237.33 266.296C237.986 266.52 238.498 266.632 238.866 266.632C239.346 266.632 239.714 266.488 239.97 266.2C240.242 265.928 240.378 265.64 240.378 265.336C240.378 264.712 240.058 264.256 239.418 263.968C238.794 263.68 238.066 263.416 237.234 263.176L238.938 258.256L242.442 258.232L241.482 261.016C242.41 261.464 243.13 262.056 243.642 262.792C244.154 263.528 244.41 264.416 244.41 265.456C244.41 266.976 243.906 268.208 242.898 269.152C241.906 270.112 240.73 270.592 239.37 270.592ZM240.21 259.72C237.538 259.72 235.258 259.128 233.37 257.944C231.482 256.744 230.034 255.112 229.026 253.048C228.034 250.984 227.53 248.648 227.514 246.04C227.53 243.384 228.05 241.032 229.074 238.984C230.114 236.92 231.586 235.304 233.49 234.136C235.394 232.952 237.658 232.36 240.282 232.36C243.226 232.36 245.714 233.104 247.746 234.592C249.794 236.064 251.13 238.08 251.754 240.64L245.994 242.2C245.546 240.808 244.802 239.728 243.762 238.96C242.722 238.176 241.538 237.784 240.21 237.784C238.706 237.784 237.466 238.144 236.49 238.864C235.514 239.568 234.794 240.544 234.33 241.792C233.866 243.04 233.634 244.456 233.634 246.04C233.634 248.504 234.186 250.496 235.29 252.016C236.394 253.536 238.034 254.296 240.21 254.296C241.746 254.296 242.954 253.944 243.834 253.24C244.73 252.536 245.402 251.52 245.85 250.192L251.754 251.512C250.954 254.152 249.554 256.184 247.554 257.608C245.554 259.016 243.106 259.72 240.21 259.72ZM268.881 229.24C268.129 229.24 267.401 229.072 266.697 228.736C266.009 228.4 265.345 228.016 264.705 227.584C264.081 227.136 263.489 226.744 262.929 226.408C262.369 226.072 261.857 225.904 261.393 225.904C260.881 225.904 260.529 226.168 260.337 226.696C260.161 227.208 260.177 227.84 260.385 228.592H256.737C256.273 226.672 256.385 225.048 257.073 223.72C257.761 222.376 259.033 221.704 260.889 221.704C261.641 221.704 262.361 221.872 263.049 222.208C263.753 222.544 264.425 222.936 265.065 223.384C265.705 223.816 266.297 224.2 266.841 224.536C267.401 224.872 267.913 225.04 268.377 225.04C268.889 225.04 269.241 224.784 269.433 224.272C269.625 223.744 269.617 223.096 269.409 222.328H273.057C273.521 224.232 273.409 225.864 272.721 227.224C272.033 228.568 270.753 229.24 268.881 229.24ZM260.889 259.72C259.017 259.72 257.433 259.368 256.137 258.664C254.841 257.944 253.857 256.992 253.185 255.808C252.529 254.624 252.201 253.32 252.201 251.896C252.201 250.648 252.409 249.528 252.825 248.536C253.241 247.528 253.881 246.664 254.745 245.944C255.609 245.208 256.729 244.608 258.105 244.144C259.145 243.808 260.361 243.504 261.753 243.232C263.161 242.96 264.681 242.712 266.313 242.488C267.961 242.248 269.681 241.992 271.473 241.72L269.409 242.896C269.425 241.104 269.025 239.784 268.209 238.936C267.393 238.088 266.017 237.664 264.081 237.664C262.913 237.664 261.785 237.936 260.697 238.48C259.609 239.024 258.849 239.96 258.417 241.288L253.137 239.632C253.777 237.44 254.993 235.68 256.785 234.352C258.593 233.024 261.025 232.36 264.081 232.36C266.385 232.36 268.409 232.736 270.153 233.488C271.913 234.24 273.217 235.472 274.065 237.184C274.529 238.096 274.809 239.032 274.905 239.992C275.001 240.936 275.049 241.968 275.049 243.088V259H269.985V253.384L270.825 254.296C269.657 256.168 268.289 257.544 266.721 258.424C265.169 259.288 263.225 259.72 260.889 259.72ZM262.041 255.112C263.353 255.112 264.473 254.88 265.401 254.416C266.329 253.952 267.065 253.384 267.609 252.712C268.169 252.04 268.545 251.408 268.737 250.816C269.041 250.08 269.209 249.24 269.241 248.296C269.289 247.336 269.313 246.56 269.313 245.968L271.089 246.496C269.345 246.768 267.849 247.008 266.601 247.216C265.353 247.424 264.281 247.624 263.385 247.816C262.489 247.992 261.697 248.192 261.009 248.416C260.337 248.656 259.769 248.936 259.305 249.256C258.841 249.576 258.481 249.944 258.225 250.36C257.985 250.776 257.865 251.264 257.865 251.824C257.865 252.464 258.025 253.032 258.345 253.528C258.665 254.008 259.129 254.392 259.737 254.68C260.361 254.968 261.129 255.112 262.041 255.112ZM290.246 259.72C287.654 259.72 285.39 259.136 283.454 257.968C281.518 256.8 280.014 255.192 278.942 253.144C277.886 251.08 277.358 248.712 277.358 246.04C277.358 243.32 277.902 240.936 278.99 238.888C280.078 236.84 281.59 235.24 283.526 234.088C285.462 232.936 287.702 232.36 290.246 232.36C292.854 232.36 295.126 232.944 297.062 234.112C298.998 235.28 300.502 236.896 301.574 238.96C302.646 241.008 303.182 243.368 303.182 246.04C303.182 248.728 302.638 251.104 301.55 253.168C300.478 255.216 298.974 256.824 297.038 257.992C295.102 259.144 292.838 259.72 290.246 259.72ZM290.246 254.296C292.55 254.296 294.262 253.528 295.382 251.992C296.502 250.456 297.062 248.472 297.062 246.04C297.062 243.528 296.494 241.528 295.358 240.04C294.222 238.536 292.518 237.784 290.246 237.784C288.694 237.784 287.414 238.136 286.406 238.84C285.414 239.528 284.678 240.496 284.198 241.744C283.718 242.976 283.478 244.408 283.478 246.04C283.478 248.552 284.046 250.56 285.182 252.064C286.334 253.552 288.022 254.296 290.246 254.296Z" fill="white"/>
<path opacity="0.8" d="M154.563 291V275.16H156.642L162.384 287.073L168.093 275.16H170.194V290.989H168.016V280.154L162.901 291H161.856L156.73 280.154V291H154.563ZM179.348 277.36H177.544L179.117 273.51H180.921L179.348 277.36ZM178.435 291.33C177.247 291.33 176.217 291.062 175.344 290.527C174.472 289.992 173.797 289.255 173.32 288.316C172.851 287.37 172.616 286.281 172.616 285.049C172.616 283.81 172.858 282.721 173.342 281.782C173.826 280.836 174.505 280.103 175.377 279.582C176.25 279.054 177.269 278.79 178.435 278.79C179.623 278.79 180.654 279.058 181.526 279.593C182.399 280.128 183.074 280.865 183.55 281.804C184.027 282.743 184.265 283.824 184.265 285.049C184.265 286.288 184.023 287.381 183.539 288.327C183.063 289.266 182.388 290.003 181.515 290.538C180.643 291.066 179.616 291.33 178.435 291.33ZM178.435 289.163C179.572 289.163 180.419 288.782 180.976 288.019C181.541 287.249 181.823 286.259 181.823 285.049C181.823 283.81 181.537 282.82 180.965 282.079C180.401 281.331 179.557 280.957 178.435 280.957C177.665 280.957 177.031 281.133 176.532 281.485C176.034 281.83 175.663 282.31 175.421 282.926C175.179 283.535 175.058 284.242 175.058 285.049C175.058 286.296 175.344 287.293 175.916 288.041C176.488 288.789 177.328 289.163 178.435 289.163ZM191.402 291.33C190.294 291.33 189.337 291.055 188.531 290.505C187.731 289.955 187.112 289.207 186.672 288.261C186.239 287.308 186.023 286.237 186.023 285.049C186.023 283.854 186.243 282.787 186.683 281.848C187.123 280.902 187.746 280.158 188.553 279.615C189.367 279.065 190.331 278.79 191.446 278.79C192.568 278.79 193.51 279.065 194.273 279.615C195.043 280.158 195.622 280.902 196.011 281.848C196.407 282.794 196.605 283.861 196.605 285.049C196.605 286.237 196.407 287.304 196.011 288.25C195.615 289.196 195.032 289.948 194.262 290.505C193.492 291.055 192.538 291.33 191.402 291.33ZM191.721 289.251C192.476 289.251 193.092 289.071 193.569 288.712C194.045 288.353 194.394 287.858 194.614 287.227C194.834 286.596 194.944 285.87 194.944 285.049C194.944 284.228 194.83 283.502 194.603 282.871C194.383 282.24 194.038 281.749 193.569 281.397C193.107 281.045 192.516 280.869 191.798 280.869C191.035 280.869 190.408 281.056 189.917 281.43C189.425 281.804 189.059 282.306 188.817 282.937C188.582 283.568 188.465 284.272 188.465 285.049C188.465 285.834 188.582 286.545 188.817 287.183C189.059 287.814 189.418 288.316 189.895 288.69C190.379 289.064 190.987 289.251 191.721 289.251ZM194.944 291V282.453H194.68V275.16H196.99V291H194.944ZM204.544 291.319C203.723 291.319 203.034 291.187 202.476 290.923C201.919 290.659 201.464 290.314 201.112 289.889C200.768 289.456 200.504 288.987 200.32 288.481C200.137 287.975 200.012 287.48 199.946 286.996C199.88 286.512 199.847 286.087 199.847 285.72V279.12H202.179V284.961C202.179 285.423 202.216 285.9 202.289 286.391C202.37 286.875 202.517 287.326 202.729 287.744C202.949 288.162 203.254 288.499 203.642 288.756C204.038 289.013 204.552 289.141 205.182 289.141C205.593 289.141 205.982 289.075 206.348 288.943C206.715 288.804 207.034 288.584 207.305 288.283C207.584 287.982 207.8 287.586 207.954 287.095C208.116 286.604 208.196 286.006 208.196 285.302L209.626 285.841C209.626 286.919 209.425 287.872 209.021 288.701C208.618 289.522 208.039 290.164 207.283 290.626C206.528 291.088 205.615 291.319 204.544 291.319ZM208.471 291V287.568H208.196V279.12H210.517V291H208.471ZM213.823 291V274.83H216.122V291H213.823ZM224.584 291.33C223.396 291.33 222.365 291.062 221.493 290.527C220.62 289.992 219.945 289.255 219.469 288.316C218.999 287.37 218.765 286.281 218.765 285.049C218.765 283.81 219.007 282.721 219.491 281.782C219.975 280.836 220.653 280.103 221.526 279.582C222.398 279.054 223.418 278.79 224.584 278.79C225.772 278.79 226.802 279.058 227.675 279.593C228.547 280.128 229.222 280.865 229.699 281.804C230.175 282.743 230.414 283.824 230.414 285.049C230.414 286.288 230.172 287.381 229.688 288.327C229.211 289.266 228.536 290.003 227.664 290.538C226.791 291.066 225.764 291.33 224.584 291.33ZM224.584 289.163C225.72 289.163 226.567 288.782 227.125 288.019C227.689 287.249 227.972 286.259 227.972 285.049C227.972 283.81 227.686 282.82 227.114 282.079C226.549 281.331 225.706 280.957 224.584 280.957C223.814 280.957 223.179 281.133 222.681 281.485C222.182 281.83 221.812 282.31 221.57 282.926C221.328 283.535 221.207 284.242 221.207 285.049C221.207 286.296 221.493 287.293 222.065 288.041C222.637 288.789 223.476 289.163 224.584 289.163ZM239.996 291V277.69L237.015 279.505V276.942L239.996 275.16H242.339V291H239.996Z" fill="white"/>
<path opacity="0.8" fill-rule="evenodd" clip-rule="evenodd" d="M47.3698 165.862C117.847 31.8397 286.529 38.7718 352.385 165.862L400.91 141.599C307.326 -21.307 94.7395 -37.4819 0 141.599L47.3698 165.862ZM180.18 27.98C178.673 27.0867 176.98 26.64 175.1 26.64C173.3 26.64 171.64 27.0733 170.12 27.94C168.613 28.7933 167.407 29.9533 166.5 31.42C165.593 32.8733 165.14 34.5 165.14 36.3C165.14 38.1 165.533 39.7133 166.32 41.14C167.12 42.5533 168.213 43.6733 169.6 44.5C171 45.3267 172.6 45.74 174.4 45.74C175.68 45.74 176.9 45.4733 178.06 44.94C178.838 44.5734 179.538 44.1138 180.16 43.5613V46.5C180.16 47.4733 179.927 48.3867 179.46 49.24C178.993 50.08 178.34 50.7667 177.5 51.3C176.66 51.82 175.68 52.08 174.56 52.08C173.773 52.08 173.013 51.9133 172.28 51.58C171.56 51.2333 170.94 50.76 170.42 50.16L166.96 53.54C167.987 54.58 169.147 55.3533 170.44 55.86C171.733 56.3533 173.107 56.6 174.56 56.6C176.667 56.6 178.507 56.16 180.08 55.28C181.653 54.4 182.873 53.1533 183.74 51.54C184.62 49.9133 185.06 48.0133 185.06 45.84V37.06C185.06 35.02 184.62 33.22 183.74 31.66C182.873 30.0867 181.687 28.86 180.18 27.98ZM172.54 31.92C173.313 31.4667 174.167 31.24 175.1 31.24C176.033 31.24 176.88 31.4733 177.64 31.94C178.413 32.4067 179.027 33.0267 179.48 33.8C179.933 34.56 180.16 35.3933 180.16 36.3C180.16 37.2333 179.927 38.0867 179.46 38.86C179.007 39.6333 178.393 40.2467 177.62 40.7C176.847 41.1533 175.993 41.38 175.06 41.38C174.127 41.38 173.273 41.1533 172.5 40.7C171.74 40.2467 171.133 39.6333 170.68 38.86C170.24 38.0867 170.02 37.2333 170.02 36.3C170.02 35.3667 170.247 34.52 170.7 33.76C171.153 32.9867 171.767 32.3733 172.54 31.92ZM189.844 51.76V55.96H209.664V51.42H197.299L204.684 44.88C205.777 43.92 206.69 43.0467 207.424 42.26C208.17 41.4733 208.73 40.6133 209.104 39.68C209.477 38.7467 209.664 37.5933 209.664 36.22C209.664 34.34 209.244 32.68 208.404 31.24C207.564 29.7867 206.41 28.6533 204.944 27.84C203.477 27.0133 201.824 26.6 199.984 26.6C197.997 26.6 196.244 26.9933 194.724 27.78C193.217 28.5667 192.03 29.6733 191.164 31.1C190.31 32.5267 189.884 34.2 189.884 36.12H194.844C194.817 35.24 195.017 34.42 195.444 33.66C195.87 32.9 196.464 32.2933 197.224 31.84C197.997 31.3733 198.884 31.14 199.884 31.14C200.83 31.14 201.664 31.36 202.384 31.8C203.117 32.24 203.69 32.84 204.104 33.6C204.517 34.3467 204.724 35.2 204.724 36.16C204.724 36.8667 204.537 37.6 204.164 38.36C203.79 39.12 203.124 39.9267 202.164 40.78L189.844 51.76ZM229.412 45.6V56H234.292V43.94C234.292 43.42 234.245 42.7467 234.152 41.92C234.072 41.08 233.885 40.1933 233.592 39.26C233.299 38.3267 232.845 37.4467 232.232 36.62C231.619 35.7933 230.792 35.1133 229.752 34.58C228.712 34.0467 227.392 33.78 225.792 33.78C223.765 33.78 222.059 34.2267 220.672 35.12C219.93 35.591 219.283 36.1498 218.732 36.7965V27.2H214.432V56H219.312V44.9C219.312 43.58 219.459 42.5 219.752 41.66C220.045 40.8067 220.432 40.14 220.912 39.66C221.405 39.1667 221.952 38.82 222.552 38.62C223.152 38.42 223.759 38.32 224.372 38.32C225.519 38.32 226.425 38.5667 227.092 39.06C227.772 39.5533 228.279 40.1867 228.612 40.96C228.959 41.72 229.179 42.5133 229.272 43.34C229.365 44.1667 229.412 44.92 229.412 45.6Z" fill="#81CD39"/>
<path d="M903.491 165.861L932.375 138.133L960.104 165.861" stroke="#752EE8" stroke-width="9" stroke-linecap="round" stroke-linejoin="round"/>
<path d="M851.84 265V230.44H857.624V265H851.84ZM893.441 265V249.256C893.441 247.48 893.001 246.096 892.121 245.104C891.241 244.096 890.049 243.592 888.545 243.592C887.617 243.592 886.785 243.808 886.049 244.24C885.313 244.656 884.729 245.28 884.297 246.112C883.865 246.928 883.649 247.904 883.649 249.04L881.081 247.528C881.065 245.736 881.465 244.16 882.281 242.8C883.113 241.424 884.233 240.352 885.641 239.584C887.049 238.816 888.617 238.432 890.345 238.432C893.209 238.432 895.401 239.296 896.921 241.024C898.457 242.736 899.225 244.992 899.225 247.792V265H893.441ZM862.265 265V239.08H867.377V247.12H868.097V265H862.265ZM877.889 265V249.328C877.889 247.52 877.449 246.112 876.569 245.104C875.689 244.096 874.489 243.592 872.969 243.592C871.497 243.592 870.313 244.096 869.417 245.104C868.537 246.112 868.097 247.424 868.097 249.04L865.505 247.312C865.505 245.632 865.921 244.12 866.753 242.776C867.585 241.432 868.705 240.376 870.113 239.608C871.537 238.824 873.129 238.432 874.889 238.432C876.825 238.432 878.441 238.848 879.737 239.68C881.049 240.496 882.025 241.616 882.665 243.04C883.321 244.448 883.649 246.04 883.649 247.816V265H877.889ZM914.347 265.72C911.723 265.72 909.419 265.152 907.435 264.016C905.451 262.88 903.899 261.304 902.779 259.288C901.675 257.272 901.123 254.952 901.123 252.328C901.123 249.496 901.667 247.04 902.755 244.96C903.843 242.864 905.355 241.24 907.291 240.088C909.227 238.936 911.467 238.36 914.011 238.36C916.699 238.36 918.979 238.992 920.851 240.256C922.739 241.504 924.139 243.272 925.051 245.56C925.963 247.848 926.307 250.544 926.083 253.648H920.347V251.536C920.331 248.72 919.835 246.664 918.859 245.368C917.883 244.072 916.347 243.424 914.251 243.424C911.883 243.424 910.123 244.16 908.971 245.632C907.819 247.088 907.243 249.224 907.243 252.04C907.243 254.664 907.819 256.696 908.971 258.136C910.123 259.576 911.803 260.296 914.011 260.296C915.435 260.296 916.659 259.984 917.683 259.36C918.723 258.72 919.523 257.8 920.083 256.6L925.795 258.328C924.803 260.664 923.267 262.48 921.187 263.776C919.123 265.072 916.843 265.72 914.347 265.72ZM905.419 253.648V249.28H923.251V253.648H905.419ZM928.938 265V239.08H934.05V245.392L933.426 244.576C933.746 243.712 934.17 242.928 934.698 242.224C935.242 241.504 935.89 240.912 936.642 240.448C937.282 240.016 937.986 239.68 938.754 239.44C939.538 239.184 940.338 239.032 941.154 238.984C941.97 238.92 942.762 238.952 943.53 239.08V244.48C942.762 244.256 941.874 244.184 940.866 244.264C939.874 244.344 938.978 244.624 938.178 245.104C937.378 245.536 936.722 246.088 936.21 246.76C935.714 247.432 935.346 248.2 935.106 249.064C934.866 249.912 934.746 250.832 934.746 251.824V265H928.938ZM954.681 265.72C951.481 265.72 948.881 265 946.881 263.56C944.881 262.12 943.665 260.096 943.233 257.488L949.137 256.576C949.441 257.856 950.113 258.864 951.153 259.6C952.193 260.336 953.505 260.704 955.089 260.704C956.481 260.704 957.553 260.432 958.305 259.888C959.073 259.328 959.457 258.568 959.457 257.608C959.457 257.016 959.313 256.544 959.025 256.192C958.753 255.824 958.145 255.472 957.201 255.136C956.257 254.8 954.809 254.376 952.857 253.864C950.681 253.288 948.953 252.672 947.673 252.016C946.393 251.344 945.473 250.552 944.913 249.64C944.353 248.728 944.073 247.624 944.073 246.328C944.073 244.712 944.497 243.304 945.345 242.104C946.193 240.904 947.377 239.984 948.897 239.344C950.417 238.688 952.209 238.36 954.273 238.36C956.289 238.36 958.073 238.672 959.625 239.296C961.193 239.92 962.457 240.808 963.417 241.96C964.377 243.112 964.969 244.464 965.193 246.016L959.289 247.072C959.145 245.968 958.641 245.096 957.777 244.456C956.929 243.816 955.793 243.456 954.369 243.376C953.009 243.296 951.913 243.504 951.081 244C950.249 244.48 949.833 245.16 949.833 246.04C949.833 246.536 950.001 246.96 950.337 247.312C950.673 247.664 951.345 248.016 952.353 248.368C953.377 248.72 954.897 249.152 956.913 249.664C958.977 250.192 960.625 250.8 961.857 251.488C963.105 252.16 964.001 252.968 964.545 253.912C965.105 254.856 965.385 256 965.385 257.344C965.385 259.952 964.433 262 962.529 263.488C960.641 264.976 958.025 265.72 954.681 265.72ZM983.381 235.24C982.629 235.24 981.901 235.072 981.197 234.736C980.509 234.4 979.845 234.016 979.205 233.584C978.581 233.136 977.989 232.744 977.429 232.408C976.869 232.072 976.357 231.904 975.893 231.904C975.381 231.904 975.029 232.168 974.837 232.696C974.661 233.208 974.677 233.84 974.885 234.592H971.237C970.773 232.672 970.885 231.048 971.573 229.72C972.261 228.376 973.533 227.704 975.389 227.704C976.141 227.704 976.861 227.872 977.549 228.208C978.253 228.544 978.925 228.936 979.565 229.384C980.205 229.816 980.797 230.2 981.341 230.536C981.901 230.872 982.413 231.04 982.877 231.04C983.389 231.04 983.741 230.784 983.933 230.272C984.125 229.744 984.117 229.096 983.909 228.328H987.557C988.021 230.232 987.909 231.864 987.221 233.224C986.533 234.568 985.253 235.24 983.381 235.24ZM975.389 265.72C973.517 265.72 971.933 265.368 970.637 264.664C969.341 263.944 968.357 262.992 967.685 261.808C967.029 260.624 966.701 259.32 966.701 257.896C966.701 256.648 966.909 255.528 967.325 254.536C967.741 253.528 968.381 252.664 969.245 251.944C970.109 251.208 971.229 250.608 972.605 250.144C973.645 249.808 974.861 249.504 976.253 249.232C977.661 248.96 979.181 248.712 980.813 248.488C982.461 248.248 984.181 247.992 985.973 247.72L983.909 248.896C983.925 247.104 983.525 245.784 982.709 244.936C981.893 244.088 980.517 243.664 978.581 243.664C977.413 243.664 976.285 243.936 975.197 244.48C974.109 245.024 973.349 245.96 972.917 247.288L967.637 245.632C968.277 243.44 969.493 241.68 971.285 240.352C973.093 239.024 975.525 238.36 978.581 238.36C980.885 238.36 982.909 238.736 984.653 239.488C986.413 240.24 987.717 241.472 988.565 243.184C989.029 244.096 989.309 245.032 989.405 245.992C989.501 246.936 989.549 247.968 989.549 249.088V265H984.485V259.384L985.325 260.296C984.157 262.168 982.789 263.544 981.221 264.424C979.669 265.288 977.725 265.72 975.389 265.72ZM976.541 261.112C977.853 261.112 978.973 260.88 979.901 260.416C980.829 259.952 981.565 259.384 982.109 258.712C982.669 258.04 983.045 257.408 983.237 256.816C983.541 256.08 983.709 255.24 983.741 254.296C983.789 253.336 983.813 252.56 983.813 251.968L985.589 252.496C983.845 252.768 982.349 253.008 981.101 253.216C979.853 253.424 978.781 253.624 977.885 253.816C976.989 253.992 976.197 254.192 975.509 254.416C974.837 254.656 974.269 254.936 973.805 255.256C973.341 255.576 972.981 255.944 972.725 256.36C972.485 256.776 972.365 257.264 972.365 257.824C972.365 258.464 972.525 259.032 972.845 259.528C973.165 260.008 973.629 260.392 974.237 260.68C974.861 260.968 975.629 261.112 976.541 261.112ZM1004.75 265.72C1002.15 265.72 999.89 265.136 997.954 263.968C996.018 262.8 994.514 261.192 993.442 259.144C992.386 257.08 991.858 254.712 991.858 252.04C991.858 249.32 992.402 246.936 993.49 244.888C994.578 242.84 996.09 241.24 998.026 240.088C999.962 238.936 1002.2 238.36 1004.75 238.36C1007.35 238.36 1009.63 238.944 1011.56 240.112C1013.5 241.28 1015 242.896 1016.07 244.96C1017.15 247.008 1017.68 249.368 1017.68 252.04C1017.68 254.728 1017.14 257.104 1016.05 259.168C1014.98 261.216 1013.47 262.824 1011.54 263.992C1009.6 265.144 1007.34 265.72 1004.75 265.72ZM1004.75 260.296C1007.05 260.296 1008.76 259.528 1009.88 257.992C1011 256.456 1011.56 254.472 1011.56 252.04C1011.56 249.528 1010.99 247.528 1009.86 246.04C1008.72 244.536 1007.02 243.784 1004.75 243.784C1003.19 243.784 1001.91 244.136 1000.91 244.84C999.914 245.528 999.178 246.496 998.698 247.744C998.218 248.976 997.978 250.408 997.978 252.04C997.978 254.552 998.546 256.56 999.682 258.064C1000.83 259.552 1002.52 260.296 1004.75 260.296Z" fill="white"/>
<path opacity="0.8" fill-rule="evenodd" clip-rule="evenodd" d="M781.023 165.861C851.5 31.8396 1020.18 38.7718 1086.04 165.861L1134.56 141.599C1040.98 -21.307 828.393 -37.4819 733.653 141.599L781.023 165.861ZM897.76 52.24V57H902.64V52.24H905.34V47.74H902.64V40.24H897.76V47.74H890.5L899.72 28.2H894.22L885 47.74V52.24H897.76ZM914.476 56.44C915.956 57.2133 917.649 57.6 919.556 57.6C921.476 57.6 923.176 57.2133 924.656 56.44C926.149 55.6667 927.316 54.5933 928.156 53.22C929.009 51.8467 929.436 50.2733 929.436 48.5C929.436 46.9133 929.063 45.44 928.316 44.08C927.779 43.0739 927.066 42.2252 926.178 41.534C926.851 40.8859 927.384 40.1879 927.776 39.44C928.363 38.3467 928.656 37.1133 928.656 35.74C928.656 34.0867 928.263 32.6533 927.476 31.44C926.703 30.2267 925.629 29.2867 924.256 28.62C922.896 27.94 921.329 27.6 919.556 27.6C917.783 27.6 916.216 27.94 914.856 28.62C913.496 29.2867 912.423 30.2267 911.636 31.44C910.863 32.6533 910.476 34.0867 910.476 35.74C910.476 37.1133 910.776 38.3533 911.376 39.46C911.798 40.2115 912.336 40.9031 912.99 41.5349C912.09 42.2371 911.372 43.0855 910.836 44.08C910.103 45.44 909.736 46.9133 909.736 48.5C909.736 50.2733 910.156 51.8467 910.996 53.22C911.836 54.5933 912.996 55.6667 914.476 56.44ZM922.996 51.9C922.116 52.6733 920.969 53.06 919.556 53.06C918.143 53.06 917.003 52.6733 916.136 51.9C915.269 51.1267 914.836 49.9933 914.836 48.5C914.836 47.0067 915.269 45.8733 916.136 45.1C917.003 44.3133 918.143 43.92 919.556 43.92C920.983 43.92 922.136 44.3133 923.016 45.1C923.896 45.8733 924.336 47.0067 924.336 48.5C924.336 49.9933 923.889 51.1267 922.996 51.9ZM922.436 38.46C921.703 39.0467 920.743 39.34 919.556 39.34C918.383 39.34 917.423 39.0467 916.676 38.46C915.943 37.86 915.576 36.9533 915.576 35.74C915.576 34.5267 915.943 33.6267 916.676 33.04C917.423 32.44 918.383 32.14 919.556 32.14C920.743 32.14 921.703 32.44 922.436 33.04C923.183 33.6267 923.556 34.5267 923.556 35.74C923.556 36.9533 923.183 37.86 922.436 38.46ZM939.588 56.3C941.148 57.1667 942.948 57.6 944.988 57.6C947.028 57.6 948.821 57.1667 950.368 56.3C951.928 55.42 953.148 54.2 954.028 52.64C954.908 51.08 955.348 49.28 955.348 47.24V37.96C955.348 35.92 954.908 34.12 954.028 32.56C953.148 31 951.928 29.7867 950.368 28.92C948.821 28.04 947.028 27.6 944.988 27.6C942.948 27.6 941.148 28.04 939.588 28.92C938.028 29.7867 936.808 31 935.928 32.56C935.061 34.12 934.628 35.92 934.628 37.96V47.24C934.628 49.28 935.061 51.08 935.928 52.64C936.808 54.2 938.028 55.42 939.588 56.3ZM947.748 52.3C946.921 52.78 946.001 53.02 944.988 53.02C943.975 53.02 943.055 52.78 942.228 52.3C941.401 51.8067 940.748 51.1533 940.268 50.34C939.788 49.5133 939.548 48.5933 939.548 47.58V37.6C939.548 36.5733 939.788 35.6533 940.268 34.84C940.748 34.0133 941.401 33.36 942.228 32.88C943.055 32.3867 943.975 32.14 944.988 32.14C946.001 32.14 946.921 32.3867 947.748 32.88C948.575 33.36 949.228 34.0133 949.708 34.84C950.188 35.6533 950.428 36.5733 950.428 37.6V47.58C950.428 48.5933 950.188 49.5133 949.708 50.34C949.228 51.1533 948.575 51.8067 947.748 52.3ZM975.896 46.6V57H980.776V44.94C980.776 44.42 980.73 43.7467 980.636 42.92C980.556 42.08 980.37 41.1933 980.076 40.26C979.783 39.3267 979.33 38.4467 978.716 37.62C978.103 36.7933 977.276 36.1133 976.236 35.58C975.196 35.0467 973.876 34.78 972.276 34.78C970.25 34.78 968.543 35.2267 967.156 36.12C966.414 36.591 965.767 37.1498 965.216 37.7965V28.2H960.916V57H965.796V45.9C965.796 44.58 965.943 43.5 966.236 42.66C966.53 41.8067 966.916 41.14 967.396 40.66C967.89 40.1667 968.436 39.82 969.036 39.62C969.636 39.42 970.243 39.32 970.856 39.32C972.003 39.32 972.91 39.5667 973.576 40.06C974.256 40.5533 974.763 41.1867 975.096 41.96C975.443 42.72 975.663 43.5133 975.756 44.34C975.85 45.1667 975.896 45.92 975.896 46.6Z" fill="#752EE8"/>
<path opacity="0.8" d="M885.909 297V281.16H887.988L893.73 293.073L899.439 281.16H901.54V296.989H899.362V286.154L894.247 297H893.202L888.076 286.154V297H885.909ZM910.694 283.36H908.89L910.463 279.51H912.267L910.694 283.36ZM909.781 297.33C908.593 297.33 907.563 297.062 906.69 296.527C905.817 295.992 905.143 295.255 904.666 294.316C904.197 293.37 903.962 292.281 903.962 291.049C903.962 289.81 904.204 288.721 904.688 287.782C905.172 286.836 905.85 286.103 906.723 285.582C907.596 285.054 908.615 284.79 909.781 284.79C910.969 284.79 911.999 285.058 912.872 285.593C913.745 286.128 914.419 286.865 914.896 287.804C915.373 288.743 915.611 289.824 915.611 291.049C915.611 292.288 915.369 293.381 914.885 294.327C914.408 295.266 913.734 296.003 912.861 296.538C911.988 297.066 910.962 297.33 909.781 297.33ZM909.781 295.163C910.918 295.163 911.765 294.782 912.322 294.019C912.887 293.249 913.169 292.259 913.169 291.049C913.169 289.81 912.883 288.82 912.311 288.079C911.746 287.331 910.903 286.957 909.781 286.957C909.011 286.957 908.377 287.133 907.878 287.485C907.379 287.83 907.009 288.31 906.767 288.926C906.525 289.535 906.404 290.242 906.404 291.049C906.404 292.296 906.69 293.293 907.262 294.041C907.834 294.789 908.674 295.163 909.781 295.163ZM922.747 297.33C921.64 297.33 920.683 297.055 919.876 296.505C919.077 295.955 918.457 295.207 918.017 294.261C917.585 293.308 917.368 292.237 917.368 291.049C917.368 289.854 917.588 288.787 918.028 287.848C918.468 286.902 919.092 286.158 919.898 285.615C920.712 285.065 921.677 284.79 922.791 284.79C923.913 284.79 924.856 285.065 925.618 285.615C926.388 286.158 926.968 286.902 927.356 287.848C927.752 288.794 927.95 289.861 927.95 291.049C927.95 292.237 927.752 293.304 927.356 294.25C926.96 295.196 926.377 295.948 925.607 296.505C924.837 297.055 923.884 297.33 922.747 297.33ZM923.066 295.251C923.822 295.251 924.438 295.071 924.914 294.712C925.391 294.353 925.739 293.858 925.959 293.227C926.179 292.596 926.289 291.87 926.289 291.049C926.289 290.228 926.176 289.502 925.948 288.871C925.728 288.24 925.384 287.749 924.914 287.397C924.452 287.045 923.862 286.869 923.143 286.869C922.381 286.869 921.754 287.056 921.262 287.43C920.771 287.804 920.404 288.306 920.162 288.937C919.928 289.568 919.81 290.272 919.81 291.049C919.81 291.834 919.928 292.545 920.162 293.183C920.404 293.814 920.764 294.316 921.24 294.69C921.724 295.064 922.333 295.251 923.066 295.251ZM926.289 297V288.453H926.025V281.16H928.335V297H926.289ZM935.89 297.319C935.069 297.319 934.379 297.187 933.822 296.923C933.265 296.659 932.81 296.314 932.458 295.889C932.113 295.456 931.849 294.987 931.666 294.481C931.483 293.975 931.358 293.48 931.292 292.996C931.226 292.512 931.193 292.087 931.193 291.72V285.12H933.525V290.961C933.525 291.423 933.562 291.9 933.635 292.391C933.716 292.875 933.862 293.326 934.075 293.744C934.295 294.162 934.599 294.499 934.988 294.756C935.384 295.013 935.897 295.141 936.528 295.141C936.939 295.141 937.327 295.075 937.694 294.943C938.061 294.804 938.38 294.584 938.651 294.283C938.93 293.982 939.146 293.586 939.3 293.095C939.461 292.604 939.542 292.006 939.542 291.302L940.972 291.841C940.972 292.919 940.77 293.872 940.367 294.701C939.964 295.522 939.384 296.164 938.629 296.626C937.874 297.088 936.961 297.319 935.89 297.319ZM939.817 297V293.568H939.542V285.12H941.863V297H939.817ZM945.168 297V280.83H947.467V297H945.168ZM955.929 297.33C954.741 297.33 953.711 297.062 952.838 296.527C951.966 295.992 951.291 295.255 950.814 294.316C950.345 293.37 950.11 292.281 950.11 291.049C950.11 289.81 950.352 288.721 950.836 287.782C951.32 286.836 951.999 286.103 952.871 285.582C953.744 285.054 954.763 284.79 955.929 284.79C957.117 284.79 958.148 285.058 959.02 285.593C959.893 286.128 960.568 286.865 961.044 287.804C961.521 288.743 961.759 289.824 961.759 291.049C961.759 292.288 961.517 293.381 961.033 294.327C960.557 295.266 959.882 296.003 959.009 296.538C958.137 297.066 957.11 297.33 955.929 297.33ZM955.929 295.163C957.066 295.163 957.913 294.782 958.47 294.019C959.035 293.249 959.317 292.259 959.317 291.049C959.317 289.81 959.031 288.82 958.459 288.079C957.895 287.331 957.051 286.957 955.929 286.957C955.159 286.957 954.525 287.133 954.026 287.485C953.528 287.83 953.157 288.31 952.915 288.926C952.673 289.535 952.552 290.242 952.552 291.049C952.552 292.296 952.838 293.293 953.41 294.041C953.982 294.789 954.822 295.163 955.929 295.163ZM973.014 297.297C972.229 297.297 971.492 297.15 970.803 296.857C970.114 296.556 969.516 296.131 969.01 295.581C968.511 295.031 968.148 294.382 967.921 293.634L970.143 293.018C970.356 293.7 970.726 294.224 971.254 294.591C971.782 294.95 972.369 295.126 973.014 295.119C973.593 295.112 974.103 294.976 974.543 294.712C974.983 294.448 975.328 294.092 975.577 293.645C975.826 293.19 975.951 292.67 975.951 292.083C975.951 291.203 975.676 290.477 975.126 289.905C974.583 289.333 973.872 289.047 972.992 289.047C972.743 289.047 972.486 289.084 972.222 289.157C971.965 289.23 971.723 289.326 971.496 289.443L970.418 287.628L976.006 282.689L976.248 283.349H968.548V281.16H978.074V283.349L973.432 287.815L973.41 287.067C974.407 287.067 975.273 287.291 976.006 287.738C976.739 288.178 977.304 288.779 977.7 289.542C978.103 290.297 978.305 291.144 978.305 292.083C978.305 293.095 978.067 293.993 977.59 294.778C977.121 295.563 976.486 296.179 975.687 296.626C974.895 297.073 974.004 297.297 973.014 297.297Z" fill="white"/>
<path d="M536.087 135.822L562.85 161.515C564.028 162.646 565.895 162.627 567.049 161.472L592.7 135.822" stroke="#1ABCFE" stroke-width="9" stroke-linecap="round"/>
<path d="M448.976 75.72C445.52 75.72 442.56 74.968 440.096 73.464C437.632 71.944 435.736 69.832 434.408 67.128C433.096 64.424 432.44 61.288 432.44 57.72C432.44 54.152 433.096 51.016 434.408 48.312C435.736 45.608 437.632 43.504 440.096 42C442.56 40.48 445.52 39.72 448.976 39.72C452.432 39.72 455.392 40.48 457.856 42C460.336 43.504 462.232 45.608 463.544 48.312C464.872 51.016 465.536 54.152 465.536 57.72C465.536 61.288 464.872 64.424 463.544 67.128C462.232 69.832 460.336 71.944 457.856 73.464C455.392 74.968 452.432 75.72 448.976 75.72ZM448.976 70.272C451.296 70.288 453.224 69.776 454.76 68.736C456.312 67.696 457.472 66.232 458.24 64.344C459.024 62.456 459.416 60.248 459.416 57.72C459.416 55.192 459.024 53 458.24 51.144C457.472 49.272 456.312 47.816 454.76 46.776C453.224 45.736 451.296 45.2 448.976 45.168C446.656 45.152 444.728 45.664 443.192 46.704C441.656 47.744 440.496 49.208 439.712 51.096C438.944 52.984 438.56 55.192 438.56 57.72C438.56 60.248 438.944 62.448 439.712 64.32C440.48 66.176 441.632 67.624 443.168 68.664C444.72 69.704 446.656 70.24 448.976 70.272ZM463.996 75L473.476 61.896L464.188 49.08H471.004L476.836 57.36L482.572 49.08H489.388L480.1 61.896L489.628 75H482.812L476.836 66.432L470.812 75H463.996ZM494.362 86.52L499.354 72.816L499.45 76.848L488.146 49.08H494.17L502.186 69.624H500.65L508.45 49.08H514.234L499.786 86.52H494.362ZM525.319 87.24C523.879 87.24 522.495 87.016 521.167 86.568C519.855 86.12 518.671 85.472 517.615 84.624C516.559 83.792 515.695 82.784 515.023 81.6L520.351 78.96C520.847 79.904 521.543 80.6 522.439 81.048C523.351 81.512 524.319 81.744 525.343 81.744C526.543 81.744 527.615 81.528 528.559 81.096C529.503 80.68 530.231 80.056 530.743 79.224C531.271 78.408 531.519 77.384 531.487 76.152V68.784H532.207V49.08H537.271V76.248C537.271 76.904 537.239 77.528 537.175 78.12C537.127 78.728 537.039 79.32 536.911 79.896C536.527 81.576 535.791 82.952 534.703 84.024C533.615 85.112 532.263 85.92 530.647 86.448C529.047 86.976 527.271 87.24 525.319 87.24ZM524.815 75.72C522.431 75.72 520.351 75.12 518.575 73.92C516.799 72.72 515.423 71.088 514.447 69.024C513.471 66.96 512.983 64.632 512.983 62.04C512.983 59.416 513.471 57.08 514.447 55.032C515.439 52.968 516.839 51.344 518.647 50.16C520.455 48.96 522.583 48.36 525.031 48.36C527.495 48.36 529.559 48.96 531.223 50.16C532.903 51.344 534.175 52.968 535.039 55.032C535.903 57.096 536.335 59.432 536.335 62.04C536.335 64.616 535.903 66.944 535.039 69.024C534.175 71.088 532.887 72.72 531.175 73.92C529.463 75.12 527.343 75.72 524.815 75.72ZM525.703 70.536C527.255 70.536 528.503 70.184 529.447 69.48C530.407 68.76 531.103 67.76 531.535 66.48C531.983 65.2 532.207 63.72 532.207 62.04C532.207 60.344 531.983 58.864 531.535 57.6C531.103 56.32 530.423 55.328 529.495 54.624C528.567 53.904 527.367 53.544 525.895 53.544C524.343 53.544 523.063 53.928 522.055 54.696C521.047 55.448 520.303 56.472 519.823 57.768C519.343 59.048 519.103 60.472 519.103 62.04C519.103 63.624 519.335 65.064 519.799 66.36C520.279 67.64 521.007 68.656 521.983 69.408C522.959 70.16 524.199 70.536 525.703 70.536ZM553.285 75.72C550.661 75.72 548.357 75.152 546.373 74.016C544.389 72.88 542.837 71.304 541.717 69.288C540.613 67.272 540.061 64.952 540.061 62.328C540.061 59.496 540.605 57.04 541.693 54.96C542.781 52.864 544.293 51.24 546.229 50.088C548.165 48.936 550.405 48.36 552.949 48.36C555.637 48.36 557.917 48.992 559.789 50.256C561.677 51.504 563.077 53.272 563.989 55.56C564.901 57.848 565.245 60.544 565.021 63.648H559.285V61.536C559.269 58.72 558.773 56.664 557.797 55.368C556.821 54.072 555.285 53.424 553.189 53.424C550.821 53.424 549.061 54.16 547.909 55.632C546.757 57.088 546.181 59.224 546.181 62.04C546.181 64.664 546.757 66.696 547.909 68.136C549.061 69.576 550.741 70.296 552.949 70.296C554.373 70.296 555.597 69.984 556.621 69.36C557.661 68.72 558.461 67.8 559.021 66.6L564.733 68.328C563.741 70.664 562.205 72.48 560.125 73.776C558.061 75.072 555.781 75.72 553.285 75.72ZM544.357 63.648V59.28H562.189V63.648H544.357ZM585.101 75V62.52C585.101 61.704 585.045 60.8 584.933 59.808C584.821 58.816 584.557 57.864 584.141 56.952C583.741 56.024 583.133 55.264 582.317 54.672C581.517 54.08 580.429 53.784 579.053 53.784C578.317 53.784 577.589 53.904 576.869 54.144C576.149 54.384 575.493 54.8 574.901 55.392C574.325 55.968 573.861 56.768 573.509 57.792C573.157 58.8 572.981 60.096 572.981 61.68L569.549 60.216C569.549 58.008 569.973 56.008 570.821 54.216C571.685 52.424 572.949 51 574.613 49.944C576.277 48.872 578.325 48.336 580.757 48.336C582.677 48.336 584.261 48.656 585.509 49.296C586.757 49.936 587.749 50.752 588.484 51.744C589.22 52.736 589.765 53.792 590.117 54.912C590.469 56.032 590.693 57.096 590.789 58.104C590.901 59.096 590.957 59.904 590.957 60.528V75H585.101ZM567.125 75V49.08H572.285V57.12H572.981V75H567.125ZM601.967 75.72C600.095 75.72 598.511 75.368 597.215 74.664C595.919 73.944 594.935 72.992 594.263 71.808C593.607 70.624 593.279 69.32 593.279 67.896C593.279 66.648 593.487 65.528 593.903 64.536C594.319 63.528 594.959 62.664 595.823 61.944C596.687 61.208 597.807 60.608 599.183 60.144C600.223 59.808 601.439 59.504 602.831 59.232C604.239 58.96 605.759 58.712 607.391 58.488C609.039 58.248 610.759 57.992 612.551 57.72L610.487 58.896C610.503 57.104 610.103 55.784 609.287 54.936C608.471 54.088 607.095 53.664 605.159 53.664C603.991 53.664 602.863 53.936 601.775 54.48C600.687 55.024 599.927 55.96 599.495 57.288L594.215 55.632C594.855 53.44 596.071 51.68 597.863 50.352C599.671 49.024 602.103 48.36 605.159 48.36C607.463 48.36 609.487 48.736 611.231 49.488C612.991 50.24 614.295 51.472 615.143 53.184C615.607 54.096 615.887 55.032 615.983 55.992C616.079 56.936 616.127 57.968 616.127 59.088V75H611.063V69.384L611.903 70.296C610.735 72.168 609.367 73.544 607.799 74.424C606.247 75.288 604.303 75.72 601.967 75.72ZM603.119 71.112C604.431 71.112 605.551 70.88 606.479 70.416C607.407 69.952 608.143 69.384 608.687 68.712C609.247 68.04 609.623 67.408 609.815 66.816C610.119 66.08 610.287 65.24 610.319 64.296C610.367 63.336 610.391 62.56 610.391 61.968L612.167 62.496C610.423 62.768 608.927 63.008 607.679 63.216C606.431 63.424 605.359 63.624 604.463 63.816C603.567 63.992 602.775 64.192 602.087 64.416C601.415 64.656 600.847 64.936 600.383 65.256C599.919 65.576 599.559 65.944 599.303 66.36C599.063 66.776 598.943 67.264 598.943 67.824C598.943 68.464 599.103 69.032 599.423 69.528C599.743 70.008 600.207 70.392 600.815 70.68C601.439 70.968 602.207 71.112 603.119 71.112ZM630.292 86.592C629.652 86.592 629.052 86.504 628.492 86.328C627.948 86.168 627.444 85.968 626.98 85.728L628.252 82.296C628.908 82.52 629.42 82.632 629.788 82.632C630.268 82.632 630.636 82.488 630.892 82.2C631.164 81.928 631.3 81.64 631.3 81.336C631.3 80.712 630.98 80.256 630.34 79.968C629.716 79.68 628.988 79.416 628.156 79.176L629.86 74.256L633.364 74.232L632.404 77.016C633.332 77.464 634.052 78.056 634.564 78.792C635.076 79.528 635.332 80.416 635.332 81.456C635.332 82.976 634.828 84.208 633.82 85.152C632.828 86.112 631.652 86.592 630.292 86.592ZM631.132 75.72C628.46 75.72 626.18 75.128 624.292 73.944C622.404 72.744 620.956 71.112 619.948 69.048C618.956 66.984 618.452 64.648 618.436 62.04C618.452 59.384 618.972 57.032 619.996 54.984C621.036 52.92 622.508 51.304 624.412 50.136C626.316 48.952 628.58 48.36 631.204 48.36C634.148 48.36 636.636 49.104 638.668 50.592C640.716 52.064 642.052 54.08 642.676 56.64L636.916 58.2C636.468 56.808 635.724 55.728 634.684 54.96C633.644 54.176 632.46 53.784 631.132 53.784C629.628 53.784 628.388 54.144 627.412 54.864C626.436 55.568 625.716 56.544 625.252 57.792C624.788 59.04 624.556 60.456 624.556 62.04C624.556 64.504 625.108 66.496 626.212 68.016C627.316 69.536 628.956 70.296 631.132 70.296C632.668 70.296 633.876 69.944 634.756 69.24C635.652 68.536 636.324 67.52 636.772 66.192L642.676 67.512C641.876 70.152 640.476 72.184 638.476 73.608C636.476 75.016 634.028 75.72 631.132 75.72ZM659.803 45.24C659.051 45.24 658.323 45.072 657.619 44.736C656.931 44.4 656.267 44.016 655.627 43.584C655.003 43.136 654.411 42.744 653.851 42.408C653.291 42.072 652.779 41.904 652.315 41.904C651.803 41.904 651.451 42.168 651.259 42.696C651.083 43.208 651.099 43.84 651.307 44.592H647.659C647.195 42.672 647.307 41.048 647.995 39.72C648.683 38.376 649.955 37.704 651.811 37.704C652.563 37.704 653.283 37.872 653.971 38.208C654.675 38.544 655.347 38.936 655.987 39.384C656.627 39.816 657.219 40.2 657.763 40.536C658.323 40.872 658.835 41.04 659.299 41.04C659.811 41.04 660.163 40.784 660.355 40.272C660.547 39.744 660.539 39.096 660.331 38.328H663.979C664.443 40.232 664.331 41.864 663.643 43.224C662.955 44.568 661.675 45.24 659.803 45.24ZM651.811 75.72C649.939 75.72 648.355 75.368 647.059 74.664C645.763 73.944 644.779 72.992 644.107 71.808C643.451 70.624 643.123 69.32 643.123 67.896C643.123 66.648 643.331 65.528 643.747 64.536C644.163 63.528 644.803 62.664 645.667 61.944C646.531 61.208 647.651 60.608 649.027 60.144C650.067 59.808 651.283 59.504 652.675 59.232C654.083 58.96 655.603 58.712 657.235 58.488C658.883 58.248 660.603 57.992 662.395 57.72L660.331 58.896C660.347 57.104 659.947 55.784 659.131 54.936C658.315 54.088 656.939 53.664 655.003 53.664C653.835 53.664 652.707 53.936 651.619 54.48C650.531 55.024 649.771 55.96 649.339 57.288L644.059 55.632C644.699 53.44 645.915 51.68 647.707 50.352C649.515 49.024 651.947 48.36 655.003 48.36C657.307 48.36 659.331 48.736 661.075 49.488C662.835 50.24 664.139 51.472 664.987 53.184C665.451 54.096 665.731 55.032 665.827 55.992C665.923 56.936 665.971 57.968 665.971 59.088V75H660.907V69.384L661.747 70.296C660.579 72.168 659.211 73.544 657.643 74.424C656.091 75.288 654.147 75.72 651.811 75.72ZM652.963 71.112C654.275 71.112 655.395 70.88 656.323 70.416C657.251 69.952 657.987 69.384 658.531 68.712C659.091 68.04 659.467 67.408 659.659 66.816C659.963 66.08 660.131 65.24 660.163 64.296C660.211 63.336 660.235 62.56 660.235 61.968L662.011 62.496C660.267 62.768 658.771 63.008 657.523 63.216C656.275 63.424 655.203 63.624 654.307 63.816C653.411 63.992 652.619 64.192 651.931 64.416C651.259 64.656 650.691 64.936 650.227 65.256C649.763 65.576 649.403 65.944 649.147 66.36C648.907 66.776 648.787 67.264 648.787 67.824C648.787 68.464 648.947 69.032 649.267 69.528C649.587 70.008 650.051 70.392 650.659 70.68C651.283 70.968 652.051 71.112 652.963 71.112ZM681.167 75.72C678.575 75.72 676.311 75.136 674.375 73.968C672.439 72.8 670.935 71.192 669.863 69.144C668.807 67.08 668.279 64.712 668.279 62.04C668.279 59.32 668.823 56.936 669.911 54.888C670.999 52.84 672.511 51.24 674.447 50.088C676.383 48.936 678.623 48.36 681.167 48.36C683.775 48.36 686.047 48.944 687.983 50.112C689.919 51.28 691.423 52.896 692.495 54.96C693.567 57.008 694.103 59.368 694.103 62.04C694.103 64.728 693.559 67.104 692.471 69.168C691.399 71.216 689.895 72.824 687.959 73.992C686.023 75.144 683.759 75.72 681.167 75.72ZM681.167 70.296C683.471 70.296 685.183 69.528 686.303 67.992C687.423 66.456 687.983 64.472 687.983 62.04C687.983 59.528 687.415 57.528 686.279 56.04C685.143 54.536 683.439 53.784 681.167 53.784C679.615 53.784 678.335 54.136 677.327 54.84C676.335 55.528 675.599 56.496 675.119 57.744C674.639 58.976 674.399 60.408 674.399 62.04C674.399 64.552 674.967 66.56 676.103 68.064C677.255 69.552 678.943 70.296 681.167 70.296Z" fill="white"/>
<path opacity="0.8" d="M521.748 23V7.16H523.827L529.569 19.073L535.278 7.16H537.379V22.989H535.201V12.154L530.086 23H529.041L523.915 12.154V23H521.748ZM546.533 9.36H544.729L546.302 5.51H548.106L546.533 9.36ZM545.62 23.33C544.432 23.33 543.402 23.0623 542.529 22.527C541.656 21.9917 540.982 21.2547 540.505 20.316C540.036 19.37 539.801 18.281 539.801 17.049C539.801 15.8097 540.043 14.7207 540.527 13.782C541.011 12.836 541.689 12.1027 542.562 11.582C543.435 11.054 544.454 10.79 545.62 10.79C546.808 10.79 547.838 11.0577 548.711 11.593C549.584 12.1283 550.258 12.8653 550.735 13.804C551.212 14.7427 551.45 15.8243 551.45 17.049C551.45 18.2883 551.208 19.381 550.724 20.327C550.247 21.2657 549.573 22.0027 548.7 22.538C547.827 23.066 546.801 23.33 545.62 23.33ZM545.62 21.163C546.757 21.163 547.604 20.7817 548.161 20.019C548.726 19.249 549.008 18.259 549.008 17.049C549.008 15.8097 548.722 14.8197 548.15 14.079C547.585 13.331 546.742 12.957 545.62 12.957C544.85 12.957 544.216 13.133 543.717 13.485C543.218 13.8297 542.848 14.31 542.606 14.926C542.364 15.5347 542.243 16.2423 542.243 17.049C542.243 18.2957 542.529 19.293 543.101 20.041C543.673 20.789 544.513 21.163 545.62 21.163ZM558.586 23.33C557.479 23.33 556.522 23.055 555.715 22.505C554.916 21.955 554.296 21.207 553.856 20.261C553.423 19.3077 553.207 18.237 553.207 17.049C553.207 15.8537 553.427 14.7867 553.867 13.848C554.307 12.902 554.93 12.1577 555.737 11.615C556.551 11.065 557.515 10.79 558.63 10.79C559.752 10.79 560.694 11.065 561.457 11.615C562.227 12.1577 562.806 12.902 563.195 13.848C563.591 14.794 563.789 15.861 563.789 17.049C563.789 18.237 563.591 19.304 563.195 20.25C562.799 21.196 562.216 21.9477 561.446 22.505C560.676 23.055 559.723 23.33 558.586 23.33ZM558.905 21.251C559.66 21.251 560.276 21.0713 560.753 20.712C561.23 20.3527 561.578 19.8577 561.798 19.227C562.018 18.5963 562.128 17.8703 562.128 17.049C562.128 16.2277 562.014 15.5017 561.787 14.871C561.567 14.2403 561.222 13.749 560.753 13.397C560.291 13.045 559.701 12.869 558.982 12.869C558.219 12.869 557.592 13.056 557.101 13.43C556.61 13.804 556.243 14.3063 556.001 14.937C555.766 15.5677 555.649 16.2717 555.649 17.049C555.649 17.8337 555.766 18.545 556.001 19.183C556.243 19.8137 556.602 20.316 557.079 20.69C557.563 21.064 558.172 21.251 558.905 21.251ZM562.128 23V14.453H561.864V7.16H564.174V23H562.128ZM571.729 23.319C570.908 23.319 570.218 23.187 569.661 22.923C569.104 22.659 568.649 22.3143 568.297 21.889C567.952 21.4563 567.688 20.987 567.505 20.481C567.322 19.975 567.197 19.48 567.131 18.996C567.065 18.512 567.032 18.0867 567.032 17.72V11.12H569.364V16.961C569.364 17.423 569.401 17.8997 569.474 18.391C569.555 18.875 569.701 19.326 569.914 19.744C570.134 20.162 570.438 20.4993 570.827 20.756C571.223 21.0127 571.736 21.141 572.367 21.141C572.778 21.141 573.166 21.075 573.533 20.943C573.9 20.8037 574.219 20.5837 574.49 20.283C574.769 19.9823 574.985 19.5863 575.139 19.095C575.3 18.6037 575.381 18.006 575.381 17.302L576.811 17.841C576.811 18.919 576.609 19.8723 576.206 20.701C575.803 21.5223 575.223 22.164 574.468 22.626C573.713 23.088 572.8 23.319 571.729 23.319ZM575.656 23V19.568H575.381V11.12H577.702V23H575.656ZM581.007 23V6.83H583.306V23H581.007ZM591.768 23.33C590.58 23.33 589.55 23.0623 588.677 22.527C587.805 21.9917 587.13 21.2547 586.653 20.316C586.184 19.37 585.949 18.281 585.949 17.049C585.949 15.8097 586.191 14.7207 586.675 13.782C587.159 12.836 587.838 12.1027 588.71 11.582C589.583 11.054 590.602 10.79 591.768 10.79C592.956 10.79 593.987 11.0577 594.859 11.593C595.732 12.1283 596.407 12.8653 596.883 13.804C597.36 14.7427 597.598 15.8243 597.598 17.049C597.598 18.2883 597.356 19.381 596.872 20.327C596.396 21.2657 595.721 22.0027 594.848 22.538C593.976 23.066 592.949 23.33 591.768 23.33ZM591.768 21.163C592.905 21.163 593.752 20.7817 594.309 20.019C594.874 19.249 595.156 18.259 595.156 17.049C595.156 15.8097 594.87 14.8197 594.298 14.079C593.734 13.331 592.89 12.957 591.768 12.957C590.998 12.957 590.364 13.133 589.865 13.485C589.367 13.8297 588.996 14.31 588.754 14.926C588.512 15.5347 588.391 16.2423 588.391 17.049C588.391 18.2957 588.677 19.293 589.249 20.041C589.821 20.789 590.661 21.163 591.768 21.163ZM603.98 22.989L603.991 20.943L610.888 14.761C611.445 14.2697 611.823 13.8003 612.021 13.353C612.226 12.9057 612.329 12.4583 612.329 12.011C612.329 11.4463 612.204 10.9403 611.955 10.493C611.706 10.0383 611.361 9.679 610.921 9.415C610.481 9.151 609.975 9.019 609.403 9.019C608.816 9.019 608.292 9.15833 607.83 9.437C607.375 9.70833 607.02 10.0713 606.763 10.526C606.506 10.9807 606.382 11.472 606.389 12H604.035C604.035 10.9733 604.266 10.075 604.728 9.305C605.197 8.52767 605.839 7.92267 606.653 7.49C607.467 7.05 608.398 6.83 609.447 6.83C610.444 6.83 611.339 7.05733 612.131 7.512C612.923 7.95933 613.546 8.57533 614.001 9.36C614.463 10.1447 614.694 11.0393 614.694 12.044C614.694 12.77 614.599 13.386 614.408 13.892C614.217 14.398 613.931 14.8673 613.55 15.3C613.169 15.7327 612.692 16.202 612.12 16.708L606.796 21.46L606.543 20.8H614.694V22.989H603.98Z" fill="white"/>
<path opacity="0.8" fill-rule="evenodd" clip-rule="evenodd" d="M718.396 173.125C719.172 171.68 720.967 171.072 722.434 171.805L765.471 193.324C767.014 194.096 767.577 196.032 766.702 197.519C672.793 357.009 463.759 372.648 368.861 197.466C368.064 195.996 368.622 194.122 370.11 193.36L412.133 171.836C413.596 171.086 415.406 171.689 416.191 173.134C486.986 303.486 652.032 296.83 718.396 173.125ZM524.96 310.7C526.24 311.26 527.6 311.54 529.04 311.54C530.84 311.54 532.48 311.127 533.96 310.3C535.453 309.46 536.64 308.32 537.52 306.88C538.413 305.44 538.86 303.813 538.86 302C538.86 300.4 538.527 298.927 537.86 297.58C537.207 296.233 536.26 295.133 535.02 294.28C534.119 293.653 533.078 293.224 531.897 292.993L538.38 286.76V282.2H520.72V286.74H532.644L524.32 293.86L526.52 297.66C526.907 297.447 527.307 297.28 527.72 297.16C528.147 297.04 528.58 296.98 529.02 296.98C530.473 296.98 531.66 297.46 532.58 298.42C533.5 299.38 533.96 300.573 533.96 302C533.96 302.933 533.747 303.78 533.32 304.54C532.893 305.287 532.307 305.88 531.56 306.32C530.813 306.76 529.967 306.98 529.02 306.98C527.953 306.993 526.973 306.693 526.08 306.08C525.2 305.453 524.593 304.567 524.26 303.42L519.6 304.68C520.013 306.08 520.687 307.293 521.62 308.32C522.567 309.347 523.68 310.14 524.96 310.7ZM543.242 306.76V310.96H563.062V306.42H550.697L558.082 299.88C559.176 298.92 560.089 298.047 560.822 297.26C561.569 296.473 562.129 295.613 562.502 294.68C562.876 293.747 563.062 292.593 563.062 291.22C563.062 289.34 562.642 287.68 561.802 286.24C560.962 284.787 559.809 283.653 558.342 282.84C556.876 282.013 555.222 281.6 553.382 281.6C551.396 281.6 549.642 281.993 548.122 282.78C546.616 283.567 545.429 284.673 544.562 286.1C543.709 287.527 543.282 289.2 543.282 291.12H548.242C548.216 290.24 548.416 289.42 548.842 288.66C549.269 287.9 549.862 287.293 550.622 286.84C551.396 286.373 552.282 286.14 553.282 286.14C554.229 286.14 555.062 286.36 555.782 286.8C556.516 287.24 557.089 287.84 557.502 288.6C557.916 289.347 558.122 290.2 558.122 291.16C558.122 291.867 557.936 292.6 557.562 293.36C557.189 294.12 556.522 294.927 555.562 295.78L543.242 306.76ZM572.83 310.3C574.39 311.167 576.19 311.6 578.23 311.6C580.27 311.6 582.064 311.167 583.61 310.3C585.17 309.42 586.39 308.2 587.27 306.64C588.15 305.08 588.59 303.28 588.59 301.24V291.96C588.59 289.92 588.15 288.12 587.27 286.56C586.39 285 585.17 283.787 583.61 282.92C582.064 282.04 580.27 281.6 578.23 281.6C576.19 281.6 574.39 282.04 572.83 282.92C571.27 283.787 570.05 285 569.17 286.56C568.304 288.12 567.87 289.92 567.87 291.96V301.24C567.87 303.28 568.304 305.08 569.17 306.64C570.05 308.2 571.27 309.42 572.83 310.3ZM580.99 306.3C580.164 306.78 579.244 307.02 578.23 307.02C577.217 307.02 576.297 306.78 575.47 306.3C574.644 305.807 573.99 305.153 573.51 304.34C573.03 303.513 572.79 302.593 572.79 301.58V291.6C572.79 290.573 573.03 289.653 573.51 288.84C573.99 288.013 574.644 287.36 575.47 286.88C576.297 286.387 577.217 286.14 578.23 286.14C579.244 286.14 580.164 286.387 580.99 286.88C581.817 287.36 582.47 288.013 582.95 288.84C583.43 289.653 583.67 290.573 583.67 291.6V301.58C583.67 302.593 583.43 303.513 582.95 304.34C582.47 305.153 581.817 305.807 580.99 306.3ZM609.138 300.6V311H614.018V298.94C614.018 298.42 613.972 297.747 613.878 296.92C613.798 296.08 613.612 295.193 613.318 294.26C613.025 293.327 612.572 292.447 611.958 291.62C611.345 290.793 610.518 290.113 609.478 289.58C608.438 289.047 607.118 288.78 605.518 288.78C603.492 288.78 601.785 289.227 600.398 290.12C599.656 290.591 599.01 291.15 598.458 291.796V282.2H594.158V311H599.038V299.9C599.038 298.58 599.185 297.5 599.478 296.66C599.772 295.807 600.158 295.14 600.638 294.66C601.132 294.167 601.678 293.82 602.278 293.62C602.878 293.42 603.485 293.32 604.098 293.32C605.245 293.32 606.152 293.567 606.818 294.06C607.498 294.553 608.005 295.187 608.338 295.96C608.685 296.72 608.905 297.513 608.998 298.34C609.092 299.167 609.138 299.92 609.138 300.6Z" fill="#1ABCFE"/>
</svg>
