<svg width="57" height="56" viewBox="0 0 57 56" fill="none" xmlns="http://www.w3.org/2000/svg">
<path d="M47.0206 42.9975L31.0762 28L47.0206 13.0025C47.0297 12.9925 47.0394 12.983 47.0495 12.9741C47.5474 12.4846 47.8865 11.8611 48.0238 11.1824C48.1611 10.5037 48.0906 9.80017 47.8211 9.16083C47.5516 8.52149 47.0952 7.97498 46.5097 7.59037C45.9241 7.20577 45.2357 7.00032 44.5313 7H12.4688C11.7645 7.00032 11.076 7.20577 10.4905 7.59037C9.90491 7.97498 9.44855 8.52149 9.17905 9.16083C8.90955 9.80017 8.839 10.5037 8.97632 11.1824C9.11365 11.8611 9.45268 12.4846 9.95057 12.9741C9.96077 12.983 9.97043 12.9925 9.97951 13.0025L25.9239 28L9.97951 42.9975C9.97043 43.0075 9.96077 43.017 9.95057 43.0259C9.45268 43.5154 9.11365 44.1389 8.97632 44.8176C8.839 45.4963 8.90955 46.1998 9.17905 46.8392C9.44855 47.4785 9.90491 48.025 10.4905 48.4096C11.076 48.7942 11.7645 48.9997 12.4688 49H44.5313C45.2359 49.0001 45.9246 48.795 46.5105 48.4105C47.0964 48.0261 47.5531 47.4796 47.8229 46.8402C48.0926 46.2008 48.1634 45.4971 48.0261 44.8182C47.8889 44.1392 47.5498 43.5155 47.0518 43.0259C47.0408 43.0171 47.0304 43.0076 47.0206 42.9975ZM44.5313 10.5L38.9471 15.75H18.053L12.4688 10.5H44.5313ZM12.4688 45.5L26.7188 32.0994V36.75C26.7188 37.2141 26.9065 37.6593 27.2405 37.9874C27.5746 38.3156 28.0276 38.5 28.5001 38.5C28.9725 38.5 29.4255 38.3156 29.7596 37.9874C30.0936 37.6593 30.2813 37.2141 30.2813 36.75V32.0994L44.5313 45.5H12.4688Z" fill="white"/>
</svg>
