<svg width="150" height="31" viewBox="0 0 150 31" fill="none" xmlns="http://www.w3.org/2000/svg">
<g clip-path="url(#clip0_255_634)">
<path fill-rule="evenodd" clip-rule="evenodd" d="M41.5074 6.34033H52.942C54.3185 6.34033 55.4342 7.47692 55.4342 8.87899V22.2198C55.4342 23.6219 54.3185 24.7585 52.942 24.7585H41.5074C40.1309 24.7585 39.0151 23.6219 39.0151 22.2198V8.87899C39.0151 7.47692 40.1309 6.34033 41.5074 6.34033ZM43.8529 10.5307C43.448 10.5307 43.1201 10.865 43.1201 11.2773V19.7998C43.1201 20.2121 43.448 20.5464 43.8529 20.5464H50.5965C51.0014 20.5464 51.3293 20.2121 51.3293 19.7998V11.2773C51.3293 10.865 51.0014 10.5307 50.5965 10.5307H43.8529Z" fill="white"/>
<path d="M45.697 14.0161C45.697 13.9748 45.7301 13.9414 45.7704 13.9414H48.774C48.8146 13.9414 48.8474 13.9748 48.8474 14.0161V17.0826C48.8474 17.1238 48.8146 17.1573 48.774 17.1573H45.7704C45.7301 17.1573 45.697 17.1238 45.697 17.0826V14.0161Z" fill="white"/>
<path d="M61.7617 6.34033H57.051C56.9901 6.34033 56.9557 6.41224 56.9937 6.46123L63.0422 14.2753C64.0465 15.5729 65.9809 15.5627 66.9719 14.2545L72.8772 6.46063C72.9142 6.41154 72.8801 6.34033 72.8192 6.34033H68.1079C68.0843 6.34033 68.0624 6.35178 68.0486 6.37117L65.0201 10.623L61.82 6.36956C61.8059 6.35114 61.7846 6.34033 61.7617 6.34033Z" fill="white"/>
<path d="M61.8193 24.7455H57.1086C57.0477 24.7455 57.0133 24.6736 57.0513 24.6246L63.0998 16.8106C64.1042 15.513 66.0385 15.5232 67.0295 16.8313L72.9348 24.6252C72.9718 24.6743 72.9374 24.7455 72.8768 24.7455H68.1655C68.1419 24.7455 68.12 24.7341 68.1062 24.7147L65.0777 20.4629L61.8776 24.7163C61.8635 24.7347 61.8422 24.7455 61.8193 24.7455Z" fill="white"/>
<path d="M79.3654 6.34033H74.6197C74.5631 6.34033 74.528 6.4029 74.5565 6.45269L80.4664 16.7548C81.4338 18.4409 83.8297 18.4296 84.7813 16.7344L90.5553 6.45209C90.5832 6.4023 90.5478 6.34033 90.4914 6.34033H85.7457C85.7189 6.34033 85.6946 6.35501 85.6815 6.37871L82.6412 11.9444L79.4286 6.37717C79.4155 6.35435 79.3913 6.34033 79.3654 6.34033Z" fill="white"/>
<path d="M80.9905 19.6635C80.9905 19.6223 81.0232 19.5889 81.0639 19.5889H84.0088C84.0491 19.5889 84.0819 19.6223 84.0819 19.6635V24.671C84.0819 24.7122 84.0491 24.7457 84.0088 24.7457H81.0639C81.0232 24.7457 80.9905 24.7122 80.9905 24.671V19.6635Z" fill="white"/>
<path d="M97.9478 13.9189H101.095V17.1326H97.9478V13.9189Z" fill="white"/>
<path d="M105.756 6.45209V10.535C105.756 10.5762 105.723 10.6097 105.683 10.6097H96.9716C96.5667 10.6097 96.2385 10.944 96.2385 11.3563V19.8038C96.2385 20.2162 96.5667 20.5505 96.9716 20.5505H102.076C102.481 20.5505 102.809 20.2162 102.809 19.8038V14.2276C102.809 14.1864 102.842 14.1529 102.882 14.1529H106.89C106.931 14.1529 106.964 14.1864 106.964 14.2276V22.2441C106.964 23.6461 105.848 24.7827 104.471 24.7827H94.576C93.1995 24.7827 92.0837 23.6461 92.0837 22.2441V8.9161C92.0837 7.51403 93.1995 6.37744 94.576 6.37744H105.683C105.723 6.37744 105.756 6.41088 105.756 6.45209Z" fill="white"/>
<path d="M118.069 13.9936C118.069 13.9524 118.101 13.9189 118.142 13.9189H123.817C123.858 13.9189 123.89 13.9524 123.89 13.9936V17.0579C123.89 17.0991 123.858 17.1326 123.817 17.1326H118.142C118.101 17.1326 118.069 17.0991 118.069 17.0579V13.9936Z" fill="white"/>
<path d="M123.91 6.41501V10.4979C123.91 10.5391 123.878 10.5725 123.837 10.5725H115.143C114.738 10.5725 114.41 10.9069 114.41 11.3192V19.7667C114.41 20.1791 114.738 20.5134 115.143 20.5134H123.837C123.878 20.5134 123.91 20.5468 123.91 20.5881V24.671C123.91 24.7122 123.878 24.7456 123.837 24.7456H112.837C111.466 24.7456 110.353 23.6173 110.345 22.2205L110.275 8.89254C110.268 7.4852 111.386 6.34033 112.768 6.34033H123.837C123.878 6.34033 123.91 6.37377 123.91 6.41501Z" fill="white"/>
<path d="M138.23 24.671C138.23 24.7122 138.263 24.7456 138.304 24.7456H142.111C142.151 24.7456 142.184 24.7122 142.184 24.671V8.879C142.184 7.47692 141.068 6.34033 139.692 6.34033H129.796C128.42 6.34033 127.304 7.47692 127.304 8.879V24.671C127.304 24.7122 127.337 24.7456 127.378 24.7456H131.184C131.225 24.7456 131.258 24.7122 131.258 24.671V11.5976C131.258 11.1852 131.586 10.8509 131.991 10.8509H137.498C137.902 10.8509 138.23 11.1852 138.23 11.5976V24.671Z" fill="white"/>
<path d="M145.482 6.45209C145.482 6.41088 145.516 6.37744 145.556 6.37744H149.902C149.943 6.37744 149.976 6.41088 149.976 6.45209V24.708C149.976 24.7493 149.943 24.7827 149.902 24.7827H145.556C145.516 24.7827 145.482 24.7493 145.482 24.708V6.45209Z" fill="white"/>
<path fill-rule="evenodd" clip-rule="evenodd" d="M41.5074 6.34033H52.942C54.3185 6.34033 55.4342 7.47692 55.4342 8.87899V22.2198C55.4342 23.6219 54.3185 24.7585 52.942 24.7585H41.5074C40.1309 24.7585 39.0151 23.6219 39.0151 22.2198V8.87899C39.0151 7.47692 40.1309 6.34033 41.5074 6.34033ZM43.8529 10.5307C43.448 10.5307 43.1201 10.865 43.1201 11.2773V19.7998C43.1201 20.2121 43.448 20.5464 43.8529 20.5464H50.5965C51.0014 20.5464 51.3293 20.2121 51.3293 19.7998V11.2773C51.3293 10.865 51.0014 10.5307 50.5965 10.5307H43.8529Z" fill="white"/>
<path d="M45.697 14.0161C45.697 13.9748 45.7301 13.9414 45.7704 13.9414H48.774C48.8146 13.9414 48.8474 13.9748 48.8474 14.0161V17.0826C48.8474 17.1238 48.8146 17.1573 48.774 17.1573H45.7704C45.7301 17.1573 45.697 17.1238 45.697 17.0826V14.0161Z" fill="white"/>
<path d="M61.7617 6.34033H57.051C56.9901 6.34033 56.9557 6.41224 56.9937 6.46123L63.0422 14.2753C64.0465 15.5729 65.9809 15.5627 66.9719 14.2545L72.8772 6.46063C72.9142 6.41154 72.8801 6.34033 72.8192 6.34033H68.1079C68.0843 6.34033 68.0624 6.35178 68.0486 6.37117L65.0201 10.623L61.82 6.36956C61.8059 6.35114 61.7846 6.34033 61.7617 6.34033Z" fill="white"/>
<path d="M61.8193 24.7455H57.1086C57.0477 24.7455 57.0133 24.6736 57.0513 24.6246L63.0998 16.8106C64.1042 15.513 66.0385 15.5232 67.0295 16.8313L72.9348 24.6252C72.9718 24.6743 72.9374 24.7455 72.8768 24.7455H68.1655C68.1419 24.7455 68.12 24.7341 68.1062 24.7147L65.0777 20.4629L61.8776 24.7163C61.8635 24.7347 61.8422 24.7455 61.8193 24.7455Z" fill="white"/>
<path d="M79.3654 6.34033H74.6197C74.5631 6.34033 74.528 6.4029 74.5565 6.45269L80.4664 16.7548C81.4338 18.4409 83.8294 18.4296 84.7813 16.7344L90.5553 6.45209C90.5832 6.4023 90.5478 6.34033 90.4914 6.34033H85.7457C85.7189 6.34033 85.6946 6.35501 85.6815 6.37871L82.6412 11.9444L79.4286 6.37717C79.4155 6.35435 79.3913 6.34033 79.3654 6.34033Z" fill="white"/>
<path d="M80.9905 19.6635C80.9905 19.6223 81.0232 19.5889 81.0639 19.5889H84.0088C84.0491 19.5889 84.0819 19.6223 84.0819 19.6635V24.671C84.0819 24.7122 84.0491 24.7457 84.0088 24.7457H81.0639C81.0232 24.7457 80.9905 24.7122 80.9905 24.671V19.6635Z" fill="white"/>
<path d="M97.9478 13.9189H101.095V17.1326H97.9478V13.9189Z" fill="white"/>
<path d="M105.756 6.45209V10.535C105.756 10.5762 105.723 10.6097 105.683 10.6097H96.9716C96.5667 10.6097 96.2385 10.944 96.2385 11.3563V19.8038C96.2385 20.2162 96.5667 20.5505 96.9716 20.5505H102.076C102.481 20.5505 102.809 20.2162 102.809 19.8038V14.2276C102.809 14.1864 102.842 14.1529 102.882 14.1529H106.89C106.931 14.1529 106.964 14.1864 106.964 14.2276V22.2441C106.964 23.6461 105.848 24.7827 104.471 24.7827H94.576C93.1995 24.7827 92.0837 23.6461 92.0837 22.2441V8.9161C92.0837 7.51403 93.1995 6.37744 94.576 6.37744H105.683C105.723 6.37744 105.756 6.41088 105.756 6.45209Z" fill="white"/>
<path d="M118.069 13.9936C118.069 13.9524 118.101 13.9189 118.142 13.9189H123.817C123.858 13.9189 123.89 13.9524 123.89 13.9936V17.0579C123.89 17.0991 123.858 17.1326 123.817 17.1326H118.142C118.101 17.1326 118.069 17.0991 118.069 17.0579V13.9936Z" fill="white"/>
<path d="M123.91 6.41501V10.4979C123.91 10.5391 123.878 10.5725 123.837 10.5725H115.143C114.738 10.5725 114.41 10.9069 114.41 11.3192V19.7667C114.41 20.1791 114.738 20.5134 115.143 20.5134H123.837C123.878 20.5134 123.91 20.5468 123.91 20.5881V24.671C123.91 24.7122 123.878 24.7456 123.837 24.7456H112.837C111.466 24.7456 110.353 23.6173 110.345 22.2205L110.275 8.89254C110.268 7.4852 111.386 6.34033 112.768 6.34033H123.837C123.878 6.34033 123.91 6.37377 123.91 6.41501Z" fill="white"/>
<path d="M138.23 24.671C138.23 24.7122 138.263 24.7456 138.304 24.7456H142.111C142.151 24.7456 142.184 24.7122 142.184 24.671V8.879C142.184 7.47692 141.068 6.34033 139.692 6.34033H129.796C128.42 6.34033 127.304 7.47692 127.304 8.879V24.671C127.304 24.7122 127.337 24.7456 127.378 24.7456H131.184C131.225 24.7456 131.258 24.7122 131.258 24.671V11.5976C131.258 11.1852 131.586 10.8509 131.991 10.8509H137.498C137.902 10.8509 138.23 11.1852 138.23 11.5976V24.671Z" fill="white"/>
<path d="M145.482 6.45209C145.482 6.41088 145.516 6.37744 145.556 6.37744H149.902C149.943 6.37744 149.976 6.41088 149.976 6.45209V24.708C149.976 24.7493 149.943 24.7827 149.902 24.7827H145.556C145.516 24.7827 145.482 24.7493 145.482 24.708V6.45209Z" fill="white"/>
<path d="M11.448 17.7471L15.8848 22.2637C15.9959 22.3767 16.1759 22.3767 16.287 22.2637L20.7256 17.7452C20.8366 17.6321 20.8366 17.4488 20.7256 17.3358L16.2888 12.8192C16.1777 12.7061 15.9977 12.7061 15.8866 12.8192L11.448 17.3377C11.337 17.4507 11.337 17.634 11.448 17.7471Z" fill="white"/>
<path d="M24.8794 0.0789472C24.8794 0.035346 24.8447 0 24.8018 0H18.9859C18.9431 0 18.9084 0.035346 18.9084 0.0789472V2.49513L18.8955 2.48203V11.0707C18.8955 11.0916 18.9037 11.1117 18.9182 11.1265L24.1511 16.4535C24.6984 17.0107 24.6984 17.9141 24.1511 18.4713L18.8955 23.8214L18.2259 24.5056C18.1877 24.5448 18.1877 24.6081 18.2261 24.6471L22.3202 28.8149C22.3586 28.854 22.4208 28.854 22.4592 28.8149L31.1485 19.9693C32.5085 18.5847 32.5085 16.34 31.1485 14.9555L24.9021 8.59668C24.8875 8.58189 24.8794 8.56181 24.8794 8.54085V0.0789472Z" fill="white"/>
<path d="M13.273 23.8216L16.0843 26.6947L20.1805 30.8655C20.2294 30.9152 20.1947 31.0002 20.1257 31.0002H11.8557L1.02004 19.9695C-0.340014 18.585 -0.340014 16.3402 1.02004 14.9557L7.14651 8.71898L13.1406 2.61703C13.1894 2.5673 13.273 2.60252 13.273 2.67285V11.0709C13.273 11.0919 13.2648 11.1119 13.2503 11.1267L11.5941 12.8127L8.01742 16.4537C7.47009 17.0109 7.47009 17.9143 8.01742 18.4715L13.273 23.8216Z" fill="white"/>
</g>
<defs>
<clipPath id="clip0_255_634">
<rect width="150" height="31" fill="white"/>
</clipPath>
</defs>
</svg>
