<svg width="42" height="48" viewBox="0 0 42 48" fill="none" xmlns="http://www.w3.org/2000/svg">
<path d="M12.5857 38.7513C12.93 38.3991 13.1422 37.9173 13.1422 37.3858C13.1422 36.3069 12.2674 35.4322 11.1883 35.4322C10.6635 35.4322 10.187 35.6391 9.836 35.9758M12.5857 38.7513C12.2309 39.1142 11.7359 39.3394 11.1883 39.3394C10.1093 39.3394 9.23448 38.4648 9.23448 37.3858C9.23448 36.8608 9.44164 36.3841 9.77869 36.0331C9.7974 36.0136 9.81651 35.9945 9.836 35.9758M12.5857 38.7513C15.4546 40.9595 19.0321 42.2698 22.9115 42.2698C28.4453 42.2698 33.3651 39.6034 36.4897 35.4683C36.4897 35.4683 38.2981 33.35 40.1298 34.6996C41.9616 36.0492 40.3324 38.4847 40.3324 38.4847C40.2087 38.6471 40.0828 38.8076 39.9547 38.9663M32.5462 32.7808C32.1973 32.4562 31.7295 32.2576 31.2154 32.2576C30.1363 32.2576 29.2615 33.1323 29.2615 34.2112C29.2615 34.6521 29.4076 35.0589 29.6539 35.3858M32.5462 32.7808C32.9295 33.1375 33.1692 33.6464 33.1692 34.2112C33.1692 35.2902 32.2945 36.1648 31.2154 36.1648C30.5772 36.1648 30.0105 35.8589 29.6539 35.3858M32.5462 32.7808C32.6136 32.6978 32.6801 32.6139 32.7455 32.5291C32.7455 32.5291 34.3904 30.6703 32.5587 29.083C30.8421 27.5956 29.0218 29.6061 29.0218 29.6061C27.5898 31.371 25.3848 32.5018 22.9115 32.5018C19.2319 32.5018 16.1463 29.9991 15.3159 26.6288C15.1097 24.804 15.1425 23.9824 15.3782 22.754C16.2917 19.5037 19.3184 17.1172 22.9115 17.1172C25.3848 17.1172 27.5898 18.248 29.0218 20.013C29.0218 20.013 30.8421 22.0235 32.5587 20.536C34.3904 18.9487 32.7455 17.09 32.7455 17.09C30.4663 14.1344 26.9088 12.2332 22.9115 12.2332C19.0205 12.2332 15.8563 13.7241 13.5721 16.546C13.5721 16.546 12.8997 17.537 11.891 17.8572M29.6539 35.3858C27.7106 36.6514 25.396 37.3858 22.9115 37.3858C19.0205 37.3858 15.9596 35.9984 13.6755 33.1766C13.6755 33.1766 12.0902 30.8401 10.1364 32.1832C8.38087 33.3899 9.3897 35.2957 9.836 35.9758M39.9547 38.9663C39.599 38.5943 39.0977 38.3626 38.5423 38.3626C37.4632 38.3626 36.5885 39.2373 36.5885 40.3162C36.5885 40.8981 36.8429 41.4205 37.2465 41.7784M39.9547 38.9663C40.2902 39.3171 40.4962 39.7926 40.4962 40.3162C40.4962 41.3952 39.6214 42.2698 38.5423 42.2698C38.0452 42.2698 37.5914 42.0842 37.2465 41.7784M37.2465 41.7784C33.3979 45.1286 28.3886 47.1538 22.9115 47.1538C16.0064 47.1538 9.84495 43.9349 5.81523 38.9004C3.11051 35.5212 1.36613 31.2284 1.00179 26.6157C1.00179 26.6157 0.997759 25.4462 1.00179 24.6874C1.00583 23.9287 1.02209 22.7626 1.02209 22.7626C1.4272 18.2414 3.15764 14.039 5.81523 10.7187C8.91589 6.84487 13.2786 4.04599 18.2711 2.96131M22.1208 2.47931C22.3832 2.46993 22.6468 2.4652 22.9115 2.4652C30.0047 2.4652 36.3133 5.86196 40.3324 11.1343C40.3324 11.1343 41.9616 13.5698 40.1298 14.9194C38.6581 16.0038 37.2013 14.8494 36.6857 14.3538M22.1208 2.47931C21.9089 1.62956 21.1404 1 20.2249 1C19.1458 1 18.2711 1.87466 18.2711 2.9536C18.2711 2.95617 18.2711 2.95874 18.2711 2.96131M22.1208 2.47931C22.1587 2.63116 22.1788 2.79003 22.1788 2.9536C22.1788 4.03255 21.304 4.9072 20.2249 4.9072C19.1484 4.9072 18.2752 4.03671 18.2711 2.96131M36.6857 14.3538C37.2157 14.0044 37.5654 13.4038 37.5654 12.7216C37.5654 11.6427 36.6906 10.768 35.6116 10.768C34.977 10.768 34.4131 11.0705 34.0562 11.5391M36.6857 14.3538C36.3775 14.557 36.0083 14.6752 35.6116 14.6752C34.5325 14.6752 33.6577 13.8006 33.6577 12.7216C33.6577 12.2771 33.8061 11.8673 34.0562 11.5391M34.0562 11.5391C31.0634 8.92767 27.1692 7.34921 22.9115 7.34921C17.5331 7.34921 13.0449 9.55749 9.91091 13.4953C9.91091 13.4953 8.37702 15.4116 9.37416 16.8925M11.891 17.8572C11.5912 17.1923 10.9232 16.7296 10.1473 16.7296C9.87213 16.7296 9.61056 16.7877 9.37416 16.8925M11.891 17.8572C11.9992 18.0972 12.0594 18.3636 12.0594 18.644C12.0594 19.7013 11.2033 20.5585 10.1473 20.5585C9.09124 20.5585 8.23514 19.7013 8.23514 18.644C8.23514 17.8622 8.70325 17.1898 9.37416 16.8925M8.3385 23.9335C8.3385 22.9268 9.12519 22.1107 10.0956 22.1107C11.066 22.1107 11.8527 22.9268 11.8527 23.9335V28.0493C11.8527 29.0559 11.066 29.872 10.0956 29.872C9.12519 29.872 8.3385 29.0559 8.3385 28.0493V23.9335Z" stroke="white"/>
</svg>
