<svg width="45" height="45" viewBox="0 0 45 45" fill="none" xmlns="http://www.w3.org/2000/svg">
<path d="M18.105 34.4006C18.0182 34.7457 15.8473 42.8749 3.90626 42.8749C3.43384 42.8749 2.98077 42.6872 2.64672 42.3532C2.31267 42.0191 2.12501 41.5661 2.12501 41.0936C2.12501 29.1526 10.2542 26.9817 10.5993 26.8948C11.0578 26.7803 11.5431 26.8526 11.9484 27.0958C12.3536 27.339 12.6456 27.7333 12.7602 28.1918C12.8747 28.6504 12.8025 29.1356 12.5592 29.5409C12.316 29.9461 11.9218 30.2381 11.4632 30.3527C11.2628 30.4084 6.47126 31.8089 5.77212 39.2278C13.191 38.5286 14.5938 33.746 14.6516 33.5233C14.7698 33.0654 15.0649 32.6731 15.4723 32.4328C15.8796 32.1925 16.3657 32.1238 16.8237 32.2419C17.2816 32.36 17.6739 32.6552 17.9142 33.0626C18.1545 33.4699 18.2232 33.956 18.105 34.414V34.4006ZM38.8121 19.3936L37.75 20.4556V33.4432C37.7527 33.9128 37.6619 34.3783 37.483 34.8125C37.3041 35.2467 37.0407 35.6411 36.708 35.9725L29.0664 43.6097C28.7369 43.9415 28.3449 44.2049 27.9131 44.3845C27.4812 44.5641 27.0181 44.6564 26.5504 44.6561C26.1644 44.656 25.781 44.5936 25.4149 44.4713C24.7863 44.2634 24.2284 43.8839 23.8042 43.3755C23.3801 42.8671 23.1066 42.2503 23.0146 41.5946L21.819 33.0246L11.9753 23.1809L3.40973 21.9853C2.75322 21.8932 2.13541 21.6198 1.62583 21.1957C1.11624 20.7717 0.73508 20.2138 0.52523 19.585C0.315381 18.9561 0.285165 18.2812 0.437981 17.6361C0.590798 16.991 0.920584 16.4014 1.39024 15.9335L9.02735 8.29192C9.35884 7.95924 9.75316 7.69579 10.1874 7.5169C10.6216 7.33801 11.0871 7.24724 11.5567 7.24989H24.5443L25.6063 6.18782C31.5468 0.249577 38.703 -0.00647719 41.5062 0.160515C42.3747 0.213296 43.1939 0.582116 43.8092 1.19739C44.4245 1.81266 44.7933 2.63184 44.8461 3.50036C45.0086 6.29469 44.7525 13.4531 38.8143 19.3936H38.8121ZM20.9818 10.8124H11.5567L3.90626 18.4584L12.1779 19.6118L20.9818 10.8124ZM34.1875 24.0181L25.3859 32.8197L26.5437 41.0936L34.1875 33.4432V24.0181Z" fill="white"/>
</svg>
